<svg width="500" height="500" viewBox="0 0 500 500" fill="none" xmlns="http://www.w3.org/2000/svg">
<g clip-path="url(#clip0)">
<rect width="500" height="500" fill="black"/>
<path d="M60 500C60 500 62.2483 477.093 68.4485 462.817C69.6202 460.119 76.0041 455.122 84.9719 449.119H84.9592C84.9953 449.094 85.0334 449.073 85.0732 449.055C106.784 434.533 183.758 391.631 189.274 387.255C205.842 374.12 208.533 362.714 194.891 355.779C183.289 349.87 173.32 330.895 165.809 310.585C164.463 311.191 162.945 311.296 161.528 310.882C129.95 301.661 129.381 237.929 150.508 249.209C130.78 76.8871 369.239 76.9757 349.498 249.203C370.619 237.936 370.05 301.661 338.478 310.882C337.059 311.301 335.537 311.193 334.191 310.578C326.673 330.895 316.698 349.87 305.09 355.779C291.555 362.669 293.614 374.665 310.384 386.996C310.511 387.084 429.373 457.801 431.564 462.817C437.758 477.093 440 500 440 500" stroke="#FEFEFE" stroke-width="2"/>
</g>
<defs>
<clipPath id="clip0">
<rect width="500" height="500" fill="white"/>
</clipPath>
</defs>
</svg>
